
<svg width="408" height="114" viewBox="0 0 408 114" fill="none" xmlns="http://www.w3.org/2000/svg">
<rect width="378" height="114" transform="matrix(-1 0 0 1 378 0)" fill="#C4C4C4"/>
<rect width="319.415" height="22.5849" transform="matrix(-1 0 0 1 368.207 45.1699)" fill="#828282"/>
<ellipse rx="12.3679" ry="17.7453" transform="matrix(-1 0 0 1 103.37 56.7453)" fill="#828282"/>
<ellipse rx="16.6698" ry="17.2075" transform="matrix(-1 0 0 1 54.7091 57)" fill="#789659"/>
<path d="M83.9155 56.2929C84.306 56.6834 84.306 57.3166 83.9155 57.7071L77.5515 64.0711C77.161 64.4616 76.5278 64.4616 76.1373 64.0711C75.7468 63.6805 75.7468 63.0474 76.1373 62.6569L81.7941 57L76.1373 51.3431C75.7468 50.9526 75.7468 50.3195 76.1373 49.9289C76.5278 49.5384 77.161 49.5384 77.5515 49.9289L83.9155 56.2929ZM55.2461 56H83.2084V58H55.2461V56Z" fill="#E3927B"/>
<rect x="378" width="30" height="114" fill="#828282"/>
</svg>