<svg width="408" height="114" viewBox="0 0 408 114" fill="none" xmlns="http://www.w3.org/2000/svg">
<rect width="378" height="114" transform="matrix(1 0 0 -1 30 114)" fill="#C4C4C4"/>
<rect width="319.415" height="22.5849" transform="matrix(1 0 0 -1 39.793 68.8301)" fill="#828282"/>
<ellipse rx="12.3679" ry="17.7453" transform="matrix(1 0 0 -1 304.63 57.2547)" fill="#828282"/>
<ellipse rx="16.6698" ry="17.2075" transform="matrix(1 0 0 -1 353.291 57)" fill="#789659"/>
<path d="M324.085 57.7071C323.694 57.3166 323.694 56.6834 324.085 56.2929L330.448 49.9289C330.839 49.5384 331.472 49.5384 331.863 49.9289C332.253 50.3195 332.253 50.9526 331.863 51.3431L326.206 57L331.863 62.6569C332.253 63.0474 332.253 63.6805 331.863 64.0711C331.472 64.4616 330.839 64.4616 330.448 64.0711L324.085 57.7071ZM352.754 58H324.792V56H352.754V58Z" fill="#E3927B"/>
<rect x="30" y="114" width="30" height="114" transform="rotate(-180 30 114)" fill="#828282"/>
</svg>
