<svg width="408" height="138" viewBox="0 0 408 138" fill="none" xmlns="http://www.w3.org/2000/svg">
<rect width="378" height="114" transform="matrix(-1 0 0 1 378 0)" fill="#C4C4C4"/>
<rect width="319.415" height="22.5849" transform="matrix(-1 0 0 1 368.211 45.1699)" fill="#828282"/>
<ellipse rx="15" ry="17.5" transform="matrix(-1 0 0 1 106 56.5)" fill="#828282"/>
<rect x="378" width="30" height="114" fill="#828282"/>
<rect x="34" y="29" width="35" height="109" fill="#9E9E9E"/>
<ellipse rx="16.6698" ry="17.2075" transform="matrix(-1 0 0 1 51.6661 57.2075)" fill="#789659"/>
<path d="M83.9194 56.2929C84.3099 56.6834 84.3099 57.3166 83.9194 57.7071L77.5554 64.0711C77.1649 64.4616 76.5317 64.4616 76.1412 64.0711C75.7507 63.6805 75.7507 63.0474 76.1412 62.6569L81.7981 57L76.1412 51.3431C75.7507 50.9526 75.7507 50.3195 76.1412 49.9289C76.5317 49.5384 77.1649 49.5384 77.5554 49.9289L83.9194 56.2929ZM55.25 56H83.2123V58H55.25V56Z" fill="#E3927B"/>
<line x1="85.5" y1="34.3174" x2="85.5" y2="77.9999" stroke="#E3927B"/>
<line y1="-0.5" x2="43" y2="-0.5" transform="matrix(-1 0.00071897 -0.00120895 -0.999999 128 77.6826)" stroke="#E3927B"/>
<line y1="-0.5" x2="43" y2="-0.5" transform="matrix(-1 0.00078448 -0.00110799 -0.999999 128 34)" stroke="#E3927B"/>
<line x1="127.305" y1="34" x2="127.305" y2="77.6825" stroke="#E3927B"/>
</svg>
