<svg width="419" height="218" viewBox="0 0 419 218" fill="none" xmlns="http://www.w3.org/2000/svg" xmlns:xlink="http://www.w3.org/1999/xlink">
<line x1="265.5" y1="57.6194" x2="265.5" y2="142.822" stroke="#E3927B" stroke-width="3"/>
<line y1="-1.5" x2="54.0781" y2="-1.5" transform="matrix(-0.999999 0.00111507 -0.000779499 -1 318.078 142.202)" stroke="#E3927B" stroke-width="3"/>
<line y1="-1.5" x2="54.0781" y2="-1.5" transform="matrix(-0.999999 0.00115996 -0.00074933 -1 318.078 57)" stroke="#E3927B" stroke-width="3"/>
<line x1="318.02" y1="57" x2="318.02" y2="142.202" stroke="#E3927B" stroke-width="3"/>
<path d="M292.061 161.939C291.475 161.354 290.525 161.354 289.939 161.939L280.393 171.485C279.808 172.071 279.808 173.021 280.393 173.607C280.979 174.192 281.929 174.192 282.515 173.607L291 165.121L299.485 173.607C300.071 174.192 301.021 174.192 301.607 173.607C302.192 173.021 302.192 172.071 301.607 171.485L292.061 161.939ZM292.5 206V163H289.5V206H292.5Z" fill="#E3927B"/>
<defs>
<pattern id="pattern0" patternContentUnits="objectBoundingBox" width="1" height="1">
<use xlink:href="#image0" transform="translate(0 -0.00943389) scale(0.00195312)"/>
</pattern>
<pattern id="pattern1" patternContentUnits="objectBoundingBox" width="1" height="1">
<use xlink:href="#image0" transform="translate(-0.0972223) scale(0.0023329 0.00195312)"/>
</pattern>
<pattern id="pattern2" patternContentUnits="objectBoundingBox" width="1" height="1">
<use xlink:href="#image0" transform="translate(0 -0.0145294) scale(0.00195312)"/>
</pattern>
<pattern id="pattern3" patternContentUnits="objectBoundingBox" width="1" height="1">
<use xlink:href="#image0" transform="translate(0 -0.0145294) scale(0.00195312)"/>
</pattern>
<pattern id="pattern4" patternContentUnits="objectBoundingBox" width="1" height="1">
<use xlink:href="#image0" transform="translate(0 -0.100285) scale(0.00195312 0.00234486)"/>
</pattern>
<pattern id="pattern5" patternContentUnits="objectBoundingBox" width="1" height="1">
<use xlink:href="#image0" transform="translate(0 -0.0499998) scale(0.00195312 0.00214844)"/>
</pattern>

</defs>
</svg>
