<svg width="419" height="218" viewBox="0 0 419 218" fill="none" xmlns="http://www.w3.org/2000/svg" xmlns:xlink="http://www.w3.org/1999/xlink">
<line x1="193.5" y1="46.7131" x2="193.5" y2="144.822" stroke="#E3927B" stroke-width="3"/>
<line y1="-1.5" x2="75.078" y2="-1.5" transform="matrix(-1 0.000924839 -0.000939835 -1 267.078 144.109)" stroke="#E3927B" stroke-width="3"/>
<line y1="-1.5" x2="75.078" y2="-1.5" transform="matrix(-0.999999 0.00100911 -0.000861352 -1 267.078 46)" stroke="#E3927B" stroke-width="3"/>
<line x1="266.414" y1="46" x2="266.414" y2="144.109" stroke="#E3927B" stroke-width="3"/>
<path d="M229.061 161.939C228.475 161.354 227.525 161.354 226.939 161.939L217.393 171.485C216.808 172.071 216.808 173.021 217.393 173.607C217.979 174.192 218.929 174.192 219.515 173.607L228 165.121L236.485 173.607C237.071 174.192 238.021 174.192 238.607 173.607C239.192 173.021 239.192 172.071 238.607 171.485L229.061 161.939ZM229.5 206V163H226.5V206H229.5Z" fill="#E3927B"/>
<defs>
<pattern id="pattern0" patternContentUnits="objectBoundingBox" width="1" height="1">
<use xlink:href="#image0" transform="translate(0 -0.00943389) scale(0.00195312)"/>
</pattern>
<pattern id="pattern1" patternContentUnits="objectBoundingBox" width="1" height="1">
<use xlink:href="#image0" transform="translate(-0.0972223) scale(0.0023329 0.00195312)"/>
</pattern>
<pattern id="pattern2" patternContentUnits="objectBoundingBox" width="1" height="1">
<use xlink:href="#image0" transform="translate(0 -0.0145294) scale(0.00195312)"/>
</pattern>
<pattern id="pattern3" patternContentUnits="objectBoundingBox" width="1" height="1">
<use xlink:href="#image0" transform="translate(0 -0.0145294) scale(0.00195312)"/>
</pattern>
<pattern id="pattern4" patternContentUnits="objectBoundingBox" width="1" height="1">
<use xlink:href="#image0" transform="translate(0 -0.100285) scale(0.00195312 0.00234486)"/>
</pattern>
<pattern id="pattern5" patternContentUnits="objectBoundingBox" width="1" height="1">
<use xlink:href="#image0" transform="translate(0 -0.0499998) scale(0.00195312 0.00214844)"/>
</pattern>
</defs>
</svg>
