<svg width="419" height="218" viewBox="0 0 419 218" fill="none" xmlns="http://www.w3.org/2000/svg" xmlns:xlink="http://www.w3.org/1999/xlink">
<line x1="9.40234" y1="11.7578" x2="9.40234" y2="144.614" stroke="#E3927B" stroke-width="3"/>
<line y1="-1.5" x2="110.077" y2="-1.5" transform="matrix(-1 0.00085419 -0.00101757 -0.999999 117.98 143.648)" stroke="#E3927B" stroke-width="3"/>
<line x1="117.982" y1="12.2922" x2="7.90447" y2="12.3948" stroke="#E3927B" stroke-width="3"/>
<line x1="116.309" y1="10.7922" x2="116.309" y2="143.648" stroke="#E3927B" stroke-width="3"/>
<path d="M64.0607 163.939C63.4749 163.354 62.5251 163.354 61.9393 163.939L52.3934 173.485C51.8076 174.071 51.8076 175.021 52.3934 175.607C52.9792 176.192 53.9289 176.192 54.5147 175.607L63 167.121L71.4853 175.607C72.0711 176.192 73.0208 176.192 73.6066 175.607C74.1924 175.021 74.1924 174.071 73.6066 173.485L64.0607 163.939ZM64.5 208V165H61.5L61.5 208H64.5Z" fill="#E3927B"/>
<defs>
<pattern id="pattern0" patternContentUnits="objectBoundingBox" width="1" height="1">
<use xlink:href="#image0" transform="translate(0 -0.00943389) scale(0.00195312)"/>
</pattern>
<pattern id="pattern1" patternContentUnits="objectBoundingBox" width="1" height="1">
<use xlink:href="#image0" transform="translate(-0.0972223) scale(0.0023329 0.00195312)"/>
</pattern>
<pattern id="pattern2" patternContentUnits="objectBoundingBox" width="1" height="1">
<use xlink:href="#image0" transform="translate(0 -0.0145294) scale(0.00195312)"/>
</pattern>
<pattern id="pattern3" patternContentUnits="objectBoundingBox" width="1" height="1">
<use xlink:href="#image0" transform="translate(0 -0.0145294) scale(0.00195312)"/>
</pattern>
<pattern id="pattern4" patternContentUnits="objectBoundingBox" width="1" height="1">
<use xlink:href="#image0" transform="translate(0 -0.100285) scale(0.00195312 0.00234486)"/>
</pattern>
<pattern id="pattern5" patternContentUnits="objectBoundingBox" width="1" height="1">
<use xlink:href="#image0" transform="translate(0 -0.0499998) scale(0.00195312 0.00214844)"/>
</pattern>
</defs>
</svg>
