<svg width="412" height="218" viewBox="0 0 412 218" fill="none" xmlns="http://www.w3.org/2000/svg" xmlns:xlink="http://www.w3.org/1999/xlink">
<line x1="221.5" y1="33.8574" x2="221.5" y2="151.822" stroke="#E3927B" stroke-width="3"/>
<line y1="-1.5" x2="76.9988" y2="-1.5" transform="matrix(-0.999999 0.00108427 -0.00080164 -1 297 150.964)" stroke="#E3927B" stroke-width="3"/>
<line y1="-1.5" x2="76.9988" y2="-1.5" transform="matrix(-0.999999 0.0011532 -0.000753727 -1 297 33)" stroke="#E3927B" stroke-width="3"/>
<line x1="296.281" y1="33" x2="296.281" y2="150.964" stroke="#E3927B" stroke-width="3"/>
<path d="M259.061 173.939C258.475 173.354 257.525 173.354 256.939 173.939L247.393 183.485C246.808 184.071 246.808 185.021 247.393 185.607C247.979 186.192 248.929 186.192 249.515 185.607L258 177.121L266.485 185.607C267.071 186.192 268.021 186.192 268.607 185.607C269.192 185.021 269.192 184.071 268.607 183.485L259.061 173.939ZM259.5 218V175H256.5V218H259.5Z" fill="#E3927B"/>
<defs>
<pattern id="pattern0" patternContentUnits="objectBoundingBox" width="1" height="1">
<use xlink:href="#image0" transform="translate(0 -0.00943389) scale(0.00195312)"/>
</pattern>
<pattern id="pattern1" patternContentUnits="objectBoundingBox" width="1" height="1">
<use xlink:href="#image0" transform="translate(-0.0972223) scale(0.0023329 0.00195312)"/>
</pattern>
<pattern id="pattern2" patternContentUnits="objectBoundingBox" width="1" height="1">
<use xlink:href="#image0" transform="translate(0 -0.0145294) scale(0.00195312)"/>
</pattern>
<pattern id="pattern3" patternContentUnits="objectBoundingBox" width="1" height="1">
<use xlink:href="#image0" transform="translate(0 -0.0145294) scale(0.00195312)"/>
</pattern>
<pattern id="pattern4" patternContentUnits="objectBoundingBox" width="1" height="1">
<use xlink:href="#image0" transform="translate(0 -0.100285) scale(0.00195312 0.00234486)"/>
</pattern>
<pattern id="pattern5" patternContentUnits="objectBoundingBox" width="1" height="1">
<use xlink:href="#image0" transform="translate(0 -0.0499998) scale(0.00195312 0.00214844)"/>
</pattern>
</defs>
</svg>
