<svg width="419" height="218" viewBox="0 0 419 218" fill="none" xmlns="http://www.w3.org/2000/svg" xmlns:xlink="http://www.w3.org/1999/xlink">
<line x1="117.5" y1="27.8008" x2="117.5" y2="138" stroke="#E3927B" stroke-width="3"/>
<line y1="-1.5" x2="76.078" y2="-1.5" transform="matrix(-0.999999 0.00102516 -0.000847866 -1 192.078 137.199)" stroke="#E3927B" stroke-width="3"/>
<line y1="-1.5" x2="76.078" y2="-1.5" transform="matrix(-0.999999 0.00134854 -0.000644544 -1 192.078 27)" stroke="#E3927B" stroke-width="3"/>
<line x1="191.387" y1="27" x2="191.387" y2="137.199" stroke="#E3927B" stroke-width="3"/>
<path d="M155.061 161.939C154.475 161.354 153.525 161.354 152.939 161.939L143.393 171.485C142.808 172.071 142.808 173.021 143.393 173.607C143.979 174.192 144.929 174.192 145.515 173.607L154 165.121L162.485 173.607C163.071 174.192 164.021 174.192 164.607 173.607C165.192 173.021 165.192 172.071 164.607 171.485L155.061 161.939ZM155.5 206V163H152.5V206H155.5Z" fill="#E3927B"/>
<defs>
<pattern id="pattern0" patternContentUnits="objectBoundingBox" width="1" height="1">
<use xlink:href="#image0" transform="translate(0 -0.00943389) scale(0.00195312)"/>
</pattern>
<pattern id="pattern1" patternContentUnits="objectBoundingBox" width="1" height="1">
<use xlink:href="#image0" transform="translate(-0.0972223) scale(0.0023329 0.00195312)"/>
</pattern>
<pattern id="pattern2" patternContentUnits="objectBoundingBox" width="1" height="1">
<use xlink:href="#image0" transform="translate(0 -0.0145294) scale(0.00195312)"/>
</pattern>
<pattern id="pattern3" patternContentUnits="objectBoundingBox" width="1" height="1">
<use xlink:href="#image0" transform="translate(0 -0.0145294) scale(0.00195312)"/>
</pattern>
<pattern id="pattern4" patternContentUnits="objectBoundingBox" width="1" height="1">
<use xlink:href="#image0" transform="translate(0 -0.100285) scale(0.00195312 0.00234486)"/>
</pattern>
<pattern id="pattern5" patternContentUnits="objectBoundingBox" width="1" height="1">
<use xlink:href="#image0" transform="translate(0 -0.0499998) scale(0.00195312 0.00214844)"/>
</pattern>
</defs>
</svg>
