<svg width="412" height="218" viewBox="0 0 412 218" fill="none" xmlns="http://www.w3.org/2000/svg" xmlns:xlink="http://www.w3.org/1999/xlink">
<line x1="95.5" y1="56.6914" x2="95.5" y2="151.822" stroke="#E3927B" stroke-width="3"/>
<line y1="-1.5" x2="53.9992" y2="-1.5" transform="matrix(-0.999999 0.00124682 -0.000697131 -1 148 151.13)" stroke="#E3927B" stroke-width="3"/>
<line y1="-1.5" x2="53.9992" y2="-1.5" transform="matrix(-0.999999 0.00133773 -0.000649756 -1 148 56)" stroke="#E3927B" stroke-width="3"/>
<line x1="147.945" y1="56" x2="147.945" y2="151.13" stroke="#E3927B" stroke-width="3"/>
<path d="M122.061 173.939C121.475 173.354 120.525 173.354 119.939 173.939L110.393 183.485C109.808 184.071 109.808 185.021 110.393 185.607C110.979 186.192 111.929 186.192 112.515 185.607L121 177.121L129.485 185.607C130.071 186.192 131.021 186.192 131.607 185.607C132.192 185.021 132.192 184.071 131.607 183.485L122.061 173.939ZM122.5 218V175H119.5V218H122.5Z" fill="#E3927B"/>
<defs>
<pattern id="pattern0" patternContentUnits="objectBoundingBox" width="1" height="1">
<use xlink:href="#image0" transform="translate(0 -0.00943389) scale(0.00195312)"/>
</pattern>
<pattern id="pattern1" patternContentUnits="objectBoundingBox" width="1" height="1">
<use xlink:href="#image0" transform="translate(-0.0972223) scale(0.0023329 0.00195312)"/>
</pattern>
<pattern id="pattern2" patternContentUnits="objectBoundingBox" width="1" height="1">
<use xlink:href="#image0" transform="translate(0 -0.0145294) scale(0.00195312)"/>
</pattern>
<pattern id="pattern3" patternContentUnits="objectBoundingBox" width="1" height="1">
<use xlink:href="#image0" transform="translate(0 -0.0145294) scale(0.00195312)"/>
</pattern>
<pattern id="pattern4" patternContentUnits="objectBoundingBox" width="1" height="1">
<use xlink:href="#image0" transform="translate(0 -0.100285) scale(0.00195312 0.00234486)"/>
</pattern>
<pattern id="pattern5" patternContentUnits="objectBoundingBox" width="1" height="1">
<use xlink:href="#image0" transform="translate(0 -0.0499998) scale(0.00195312 0.00214844)"/>
</pattern>
</defs>
</svg>
