<svg width="412" height="218" viewBox="0 0 412 218" fill="none" xmlns="http://www.w3.org/2000/svg" xmlns:xlink="http://www.w3.org/1999/xlink">
<line x1="296.5" y1="18.9656" x2="296.5" y2="151.822" stroke="#E3927B" stroke-width="3"/>
<line y1="-1.5" x2="110.077" y2="-1.5" transform="matrix(-1 0.00085419 -0.00101757 -0.999999 405.078 150.856)" stroke="#E3927B" stroke-width="3"/>
<line x1="405.08" y1="19.5" x2="295.002" y2="19.6026" stroke="#E3927B" stroke-width="3"/>
<line x1="403.406" y1="18" x2="403.406" y2="150.856" stroke="#E3927B" stroke-width="3"/>
<path d="M351.061 168.939C350.475 168.354 349.525 168.354 348.939 168.939L339.393 178.485C338.808 179.071 338.808 180.021 339.393 180.607C339.979 181.192 340.929 181.192 341.515 180.607L350 172.121L358.485 180.607C359.071 181.192 360.021 181.192 360.607 180.607C361.192 180.021 361.192 179.071 360.607 178.485L351.061 168.939ZM351.5 213V170H348.5V213H351.5Z" fill="#E3927B"/>
<defs>
<pattern id="pattern0" patternContentUnits="objectBoundingBox" width="1" height="1">
<use xlink:href="#image0" transform="translate(0 -0.00943389) scale(0.00195312)"/>
</pattern>
<pattern id="pattern1" patternContentUnits="objectBoundingBox" width="1" height="1">
<use xlink:href="#image0" transform="translate(-0.0972223) scale(0.0023329 0.00195312)"/>
</pattern>
<pattern id="pattern2" patternContentUnits="objectBoundingBox" width="1" height="1">
<use xlink:href="#image0" transform="translate(0 -0.0145294) scale(0.00195312)"/>
</pattern>
<pattern id="pattern3" patternContentUnits="objectBoundingBox" width="1" height="1">
<use xlink:href="#image0" transform="translate(0 -0.0145294) scale(0.00195312)"/>
</pattern>
<pattern id="pattern4" patternContentUnits="objectBoundingBox" width="1" height="1">
<use xlink:href="#image0" transform="translate(0 -0.100285) scale(0.00195312 0.00234486)"/>
</pattern>
<pattern id="pattern5" patternContentUnits="objectBoundingBox" width="1" height="1">
<use xlink:href="#image0" transform="translate(0 -0.0499998) scale(0.00195312 0.00214844)"/>
</pattern>
</defs>
</svg>
