<svg width="115" height="115" viewBox="0 0 115 115" fill="none" xmlns="http://www.w3.org/2000/svg">
<path d="M84.0479 58.5271L78.8564 54.574C78.9223 53.9644 78.9788 53.2517 78.9788 52.4977C78.9788 51.7437 78.9246 51.0311 78.8564 50.4215L84.0526 46.4661C85.0176 45.7236 85.2811 44.4059 84.6669 43.3082L79.2682 34.2125C78.6916 33.1859 77.4279 32.6587 76.1454 33.1194L70.0196 35.5141C68.8453 34.6891 67.6144 33.9925 66.3413 33.4356L65.4094 27.1084C65.2563 25.9075 64.1832 25 62.9148 25H52.0895C50.821 25 49.7503 25.9075 49.5996 27.09L48.6653 33.4402C47.4321 33.9811 46.2202 34.6686 44.9941 35.5188L38.8518 33.1171C37.7009 32.684 36.3242 33.1698 35.7524 34.1919L30.3468 43.299C29.7091 44.3486 29.9726 45.7121 30.9587 46.473L36.1502 50.4261C36.0678 51.1984 36.0278 51.8699 36.0278 52.5001C36.0278 53.1304 36.0679 53.8017 36.1502 54.5764L30.954 58.5317C29.989 59.2765 29.7278 60.5942 30.3421 61.6896L35.7407 70.7852C36.3173 71.8096 37.5692 72.3412 38.8635 71.8784L44.9894 69.4836C46.1613 70.3064 47.3921 71.003 48.6653 71.5621L49.5972 77.8871C49.7501 79.0925 50.821 80 52.0918 80H62.9171C64.1856 80 65.2588 79.0925 65.4094 77.91L66.3436 71.5621C67.5768 71.019 68.7864 70.3337 70.0148 69.4812L76.1571 71.8829C76.4536 71.9951 76.7619 72.0525 77.0796 72.0525C77.9927 72.0525 78.8328 71.5666 79.2564 70.8104L84.6786 61.6666C85.2811 60.5941 85.0174 59.2765 84.0479 58.5271ZM57.5021 61.6666C52.3106 61.6666 48.0887 57.5554 48.0887 52.5C48.0887 47.4446 52.3106 43.3334 57.5021 43.3334C62.6935 43.3334 66.9155 47.4446 66.9155 52.5C66.9155 57.5554 62.6935 61.6666 57.5021 61.6666Z" fill="#009966"/>
</svg>
