<svg width="115" height="115" viewBox="0 0 115 115" fill="none" xmlns="http://www.w3.org/2000/svg">
<g filter="url(#filter0_d)">
<circle cx="57.5" cy="52.5" r="27.5" fill="#009966"/>
<path d="M56.6229 58.0259C56.6229 56.7299 56.9109 55.6619 57.4869 54.8219C58.0869 53.9579 58.9509 53.0219 60.0789 52.0139C60.9429 51.2459 61.5789 50.5859 61.9869 50.0339C62.4189 49.4579 62.6349 48.8099 62.6349 48.0899C62.6349 47.0819 62.2269 46.2659 61.4109 45.6419C60.5949 45.0179 59.5029 44.7059 58.1349 44.7059C55.5429 44.7059 53.5869 45.6299 52.2669 47.4779L48.7749 45.2099C49.8069 43.7939 51.1389 42.7139 52.7709 41.9699C54.4029 41.2019 56.3229 40.8179 58.5309 40.8179C61.2189 40.8179 63.3549 41.4059 64.9389 42.5819C66.5469 43.7339 67.3509 45.3299 67.3509 47.3699C67.3509 48.3539 67.1829 49.2179 66.8469 49.9619C66.5349 50.7059 66.1509 51.3419 65.6949 51.8699C65.2389 52.3739 64.6389 52.9619 63.8949 53.6339C62.9829 54.4499 62.2989 55.1699 61.8429 55.7939C61.4109 56.4179 61.1949 57.1619 61.1949 58.0259H56.6229ZM58.9269 66.6299C58.0869 66.6299 57.3909 66.3659 56.8389 65.8379C56.3109 65.2859 56.0469 64.6139 56.0469 63.8219C56.0469 63.0299 56.3109 62.3699 56.8389 61.8419C57.3909 61.3139 58.0869 61.0499 58.9269 61.0499C59.7429 61.0499 60.4149 61.3139 60.9429 61.8419C61.4949 62.3699 61.7709 63.0299 61.7709 63.8219C61.7709 64.6139 61.4949 65.2859 60.9429 65.8379C60.4149 66.3659 59.7429 66.6299 58.9269 66.6299Z" fill="white"/>
</g>
<defs>
<filter id="filter0_d" x="0" y="0" width="115" height="115" filterUnits="userSpaceOnUse" color-interpolation-filters="sRGB">
<feFlood flood-opacity="0" result="BackgroundImageFix"/>
<feColorMatrix in="SourceAlpha" type="matrix" values="0 0 0 0 0 0 0 0 0 0 0 0 0 0 0 0 0 0 127 0"/>
<feOffset dy="5"/>
<feGaussianBlur stdDeviation="15"/>
<feColorMatrix type="matrix" values="0 0 0 0 0.391875 0 0 0 0 0.55 0 0 0 0 0.459225 0 0 0 0.2 0"/>
<feBlend mode="normal" in2="BackgroundImageFix" result="effect1_dropShadow"/>
<feBlend mode="normal" in="SourceGraphic" in2="effect1_dropShadow" result="shape"/>
</filter>
</defs>
</svg>
