<svg width="117" height="113" viewBox="0 0 117 113" fill="none" xmlns="http://www.w3.org/2000/svg">
<path d="M57.6882 46.943C72.7968 32.3528 89.3634 24.6963 94.6926 29.8414C95.2774 30.433 95.7077 31.1505 95.9479 31.9349L96.0337 31.852L101.123 51.9959L106.191 72.0794L112.199 95.8604L116.002 110.921L93.486 102.692L64.8478 92.227L42.0007 83.8777L42.028 83.8513C41.2632 83.6158 40.5634 83.2162 39.9813 82.6822C34.6521 77.5352 42.5797 61.535 57.6882 46.943Z" fill="#DD1C4B"/>
<path d="M57.6885 46.9373C72.7965 32.3458 89.3636 24.689 94.6922 29.8354C100.021 34.9817 92.0929 50.9824 76.9849 65.5739C61.8768 80.1654 45.3098 87.8222 39.9812 82.6758C34.6527 77.5295 42.5805 61.5288 57.6885 46.9373Z" fill="#D1E3EE"/>
<path d="M44.0747 84.5285C46.8027 84.5746 49.5092 84.0559 52.012 83.0073L70.6858 89.8318L99.3338 100.288L114.696 105.902L116.002 111.073L93.486 102.844L64.8478 92.3789L43.8798 84.7167L44.0747 84.5285Z" fill="#B21D48"/>
<path d="M20.4899 69.6573C20.7233 69.6566 20.9548 69.6163 21.1741 69.5387C31.0696 65.9582 41.7663 64.9543 52.1904 66.6282L59.1531 67.7483C60.2188 67.8952 61.2061 67.1798 61.3582 66.1505C61.5051 65.156 60.8177 64.2253 59.7963 64.0358L52.8317 62.9063C41.7322 61.1251 30.3431 62.1932 19.8057 66.0031C18.7926 66.3547 18.2665 67.433 18.6306 68.4115C18.9117 69.1673 19.6583 69.6676 20.4899 69.6573Z" fill="#FFBF41"/>
<path d="M55.579 58.3612C56.6555 58.3551 57.5231 57.5072 57.5168 56.4676C57.5124 55.7498 57.086 55.097 56.4172 54.7843L15.4831 35.9583C14.5109 35.5112 13.3477 35.9098 12.8848 36.8487C12.4219 37.7877 12.8346 38.9111 13.8068 39.3582L54.7408 58.1843C55.003 58.3026 55.2893 58.3631 55.579 58.3612Z" fill="#FFBF41"/>
<path d="M78.3724 54.5961C78.6294 54.5965 78.884 54.5473 79.1209 54.4511C80.1145 54.0508 80.584 52.9485 80.1696 51.9889V51.9887L77.3354 45.4203C72.9747 35.3566 71.9579 24.2332 74.4252 13.5874C74.6781 12.5767 74.0346 11.5596 72.9883 11.3153C71.9418 11.0711 70.8887 11.6925 70.6358 12.703C70.6302 12.7254 70.6251 12.7477 70.6202 12.7703C67.9771 24.1744 69.0669 36.0899 73.739 46.8699L76.5752 53.4383C76.8778 54.1388 77.5863 54.5953 78.3724 54.5961Z" fill="#FFBF41"/>
<path d="M10.7453 77.1862C8.59225 77.1862 6.84684 75.5004 6.84684 73.421C6.84684 71.3415 8.59225 69.6558 10.7453 69.6558C12.8984 69.6558 14.6438 71.3415 14.6438 73.421C14.6438 75.5004 12.8984 77.1862 10.7453 77.1862Z" fill="#D5557E"/>
<path d="M57.5271 24.4738C55.374 24.4738 53.6286 22.788 53.6286 20.7086C53.6286 18.6291 55.374 16.9434 57.5271 16.9434C59.6801 16.9434 61.4255 18.6291 61.4255 20.7086C61.4255 22.788 59.6801 24.4738 57.5271 24.4738Z" fill="#DD95C1"/>
<path d="M75.0695 7.5304C77.2227 7.5304 78.968 5.84477 78.968 3.7652C78.968 1.68563 77.2227 0 75.0695 0C72.9164 0 71.1711 1.68563 71.1711 3.7652C71.1711 5.84477 72.9164 7.5304 75.0695 7.5304Z" fill="#7FCCCB"/>
<path d="M20.4909 15.0604C21.5674 15.0604 22.4402 14.2175 22.4402 13.1778V11.2952C22.4402 10.2555 21.5674 9.4126 20.4909 9.4126C19.4145 9.4126 18.5417 10.2555 18.5417 11.2952V13.1778C18.5417 14.2175 19.4142 15.0604 20.4909 15.0604Z" fill="#2276BB"/>
<path d="M20.4909 5.6478C21.5674 5.6478 22.4402 4.80487 22.4402 3.7652V1.8826C22.4402 0.842934 21.5674 0 20.4909 0C19.4145 0 18.5417 0.842934 18.5417 1.8826V3.7652C18.5417 4.80487 19.4142 5.6478 20.4909 5.6478Z" fill="#2276BB"/>
<path d="M14.6433 9.41315H16.5925C17.669 9.41315 18.5417 8.57022 18.5417 7.53055C18.5417 6.49088 17.669 5.64795 16.5925 5.64795H14.6433C13.5668 5.64795 12.694 6.49088 12.694 7.53055C12.694 8.57022 13.5666 9.41315 14.6433 9.41315Z" fill="#2276BB"/>
<path d="M24.3891 9.41315H26.3384C27.4148 9.41315 28.2876 8.57022 28.2876 7.53055C28.2876 6.49088 27.4148 5.64795 26.3384 5.64795H24.3891C23.3126 5.64795 22.4399 6.49088 22.4399 7.53055C22.4399 8.57022 23.3124 9.41315 24.3891 9.41315Z" fill="#2276BB"/>
<path d="M100.529 54.5953C100.747 53.7896 100.942 52.9763 101.124 52.1479L106.192 72.2315L105.802 76.8232C104.952 86.6125 100.598 95.8099 93.4885 102.835L64.8483 92.3791C65.0042 92.332 65.166 92.2982 65.3219 92.2473C82.6884 85.9583 95.8149 71.9202 100.529 54.5953Z" fill="white"/>
<path d="M64.848 92.3791C65.0039 92.332 65.1657 92.2981 65.3217 92.2473C67.1978 91.5613 69.0354 90.7803 70.8263 89.9072L96.6226 99.3334C95.6445 100.559 94.5975 101.731 93.4862 102.844L64.848 92.3791Z" fill="#F6F6E7"/>
<path d="M34.136 22.5513V32.0038H43.9231V22.5513H34.136Z" fill="#C9DA53"/>
<path d="M69.2199 56.4782C70.2964 56.478 71.1689 55.6348 71.1687 54.5951C71.1685 54.0619 70.9343 53.5538 70.524 53.1968L51.0316 36.2534C50.2175 35.5731 48.9866 35.659 48.2822 36.4452C47.5973 37.2095 47.6596 38.3598 48.4235 39.051L67.9159 55.9944C68.2736 56.3057 68.7382 56.478 69.2199 56.4782Z" fill="#FFBF41"/>
<path d="M12.6921 48.9471C13.7686 48.9471 14.6414 48.1042 14.6414 47.0645V45.1819C14.6414 44.1422 13.7686 43.2993 12.6921 43.2993C11.6156 43.2993 10.7429 44.1422 10.7429 45.1819V47.0645C10.7429 48.1042 11.6154 48.9471 12.6921 48.9471Z" fill="#FFDB43"/>
<path d="M5.80032 46.1887C6.3176 46.1901 6.81393 45.9915 7.17843 45.6371L8.55655 44.3061C9.30433 43.5583 9.28313 42.3664 8.50879 41.6441C7.75346 40.9396 6.55589 40.9396 5.80032 41.6441L4.42221 42.9751C3.66103 43.7105 3.66127 44.9024 4.42269 45.6376C4.78793 45.9904 5.28352 46.1887 5.80032 46.1887Z" fill="#FFDB43"/>
<path d="M2.94625 39.5342H4.89549C5.97195 39.5342 6.84473 38.6913 6.84473 37.6516C6.84473 36.612 5.97195 35.769 4.89549 35.769H2.94625C1.86978 35.769 0.997009 36.612 0.997009 37.6516C0.997009 38.6913 1.86954 39.5342 2.94625 39.5342Z" fill="#FFDB43"/>
<path d="M7.17649 34.2099C8.25296 34.2097 9.12549 33.3667 9.12524 32.3268C9.12524 31.8277 8.91984 31.3491 8.5546 30.9963L7.17649 29.6653C6.40216 28.9429 5.16829 28.9636 4.42027 29.7114C3.69077 30.4409 3.69077 31.5976 4.42027 32.3273L5.79838 33.6583C6.16386 34.0113 6.65945 34.2099 7.17649 34.2099Z" fill="#FFDB43"/>
<path d="M12.6921 32.0038C13.7686 32.0038 14.6414 31.1608 14.6414 30.1212V28.2386C14.6414 27.1989 13.7686 26.356 12.6921 26.356C11.6156 26.356 10.7429 27.1989 10.7429 28.2386V30.1212C10.7429 31.1608 11.6154 32.0038 12.6921 32.0038Z" fill="#FFDB43"/>
<path d="M18.2046 34.2102C18.7217 34.2102 19.2173 34.0116 19.5827 33.6586L20.9609 32.3276C21.7086 31.5798 21.6874 30.3878 20.9131 29.6656C20.1578 28.9611 18.9602 28.9611 18.2046 29.6656L16.8265 30.9966C16.0654 31.732 16.0656 32.9239 16.827 33.6591C17.1923 34.0118 17.6878 34.2102 18.2046 34.2102Z" fill="#FFDB43"/>
<path d="M106.256 1.88232L103.244 7.77674L96.5093 8.72181L101.382 13.3097L100.232 19.7877L106.256 16.7285L112.279 19.7877L111.129 13.3097L116.002 8.72181L109.267 7.77674L106.256 1.88232Z" fill="#FFDB43"/>
<path d="M1.61308 101.973C2.54018 98.7995 4.67485 96.0822 7.58945 94.3653L8.39254 93.2018C12.8955 86.6981 19.9764 82.2759 27.9649 80.9781C29.0306 80.8313 30.0179 81.5466 30.1699 82.576C30.3169 83.5704 29.6295 84.5011 28.6081 84.6906C22.8462 85.6352 17.5951 88.4624 13.7334 92.6992C16.9802 93.2632 19.8197 95.1465 21.5304 97.8707C23.6297 101.502 22.2836 106.089 18.5237 108.117C14.7639 110.144 10.0143 108.844 7.91497 105.213C7.11311 103.718 6.68013 102.064 6.64991 100.38C4.57592 103.289 4.41 107.089 6.22303 110.157C6.77223 111.051 6.46693 112.206 5.54104 112.736C4.61515 113.267 3.41929 112.972 2.87009 112.077C2.85255 112.049 2.83574 112.02 2.81965 111.99C1.04877 108.941 0.614334 105.334 1.61308 101.973ZM11.3144 103.375C12.3549 105.196 14.7263 105.857 16.6113 104.853C18.4964 103.848 19.1811 101.557 18.1407 99.7368C18.1348 99.7267 18.129 99.7163 18.1231 99.7062C16.9729 97.8871 15.0326 96.6677 12.8446 96.3891C12.5057 96.3801 12.1702 96.4554 11.87 96.6074C10.2248 97.4941 10.1371 101.338 11.3144 103.375Z" fill="#2BB3CE"/>
</svg>
