<svg width="55" height="55" viewBox="0 0 55 55" fill="none" xmlns="http://www.w3.org/2000/svg">
<path d="M54.0479 33.5271L48.8564 29.574C48.9223 28.9644 48.9788 28.2517 48.9788 27.4977C48.9788 26.7437 48.9246 26.0311 48.8564 25.4215L54.0526 21.4661C55.0176 20.7236 55.2811 19.4059 54.6669 18.3082L49.2682 9.2125C48.6916 8.18587 47.4279 7.65875 46.1454 8.11937L40.0196 10.5141C38.8453 9.68913 37.6144 8.9925 36.3413 8.43563L35.4094 2.10837C35.2563 0.9075 34.1832 0 32.9148 0H22.0895C20.821 0 19.7503 0.9075 19.5996 2.09L18.6653 8.44024C17.4321 8.98111 16.2202 9.66861 14.9941 10.5188L8.85185 8.11712C7.70095 7.68399 6.32424 8.16976 5.75237 9.19188L0.346796 18.299C-0.290926 19.3486 -0.0273873 20.7121 0.958704 21.473L6.15016 25.4261C6.06776 26.1984 6.02782 26.8699 6.02782 27.5001C6.02782 28.1304 6.06787 28.8017 6.15016 29.5764L0.95396 33.5317C-0.0109506 34.2765 -0.272173 35.5942 0.342052 36.6896L5.74068 45.7852C6.31729 46.8096 7.56923 47.3412 8.86354 46.8784L14.9894 44.4836C16.1613 45.3064 17.3921 46.003 18.6653 46.5621L19.5972 52.8871C19.7501 54.0925 20.821 55 22.0918 55H32.9171C34.1856 55 35.2588 54.0925 35.4094 52.91L36.3436 46.5621C37.5768 46.019 38.7864 45.3337 40.0148 44.4812L46.1571 46.8829C46.4536 46.9951 46.7619 47.0525 47.0796 47.0525C47.9927 47.0525 48.8328 46.5666 49.2564 45.8104L54.6786 36.6666C55.2811 35.5941 55.0174 34.2765 54.0479 33.5271ZM27.5021 36.6666C22.3106 36.6666 18.0887 32.5554 18.0887 27.5C18.0887 22.4446 22.3106 18.3334 27.5021 18.3334C32.6935 18.3334 36.9155 22.4446 36.9155 27.5C36.9155 32.5554 32.6935 36.6666 27.5021 36.6666Z" fill="#009966"/>
</svg>
