<svg width="97" height="96" viewBox="0 0 97 96" fill="none" xmlns="http://www.w3.org/2000/svg">
<path d="M48.5686 70.3993C48.6054 71.9001 48.9909 73.3722 49.6934 74.7001C50.4974 76.0492 51.9761 76.8542 53.5503 76.8C54.08 77.8093 54.7833 78.7182 55.63 79.4843C56.1979 79.9172 56.9983 79.8718 57.5132 79.3774C58.0627 78.8434 58.9065 78.7504 59.5605 79.1503C61.0605 80.0468 62.6561 80.7741 64.3171 81.3198C64.8247 81.4933 65.3875 81.3696 65.7752 80.9997L66.8117 79.9999C67.8438 81.4472 69.1054 82.7179 70.548 83.7616C71.1151 84.1315 71.839 84.1667 72.44 83.8525C73.041 83.539 73.4236 82.926 73.4405 82.2507C73.4398 82.0976 73.5133 81.9526 73.6369 81.8625C73.7612 81.7717 73.9216 81.7453 74.0687 81.7914C75.0331 82.0749 76.9612 83.3178 78.9107 84.1147C79.5382 84.3696 80.251 84.3 80.816 83.9279C81.3817 83.5558 81.7252 82.9304 81.7355 82.2558C81.737 82.1115 81.8106 81.9775 81.9319 81.8991C82.0526 81.82 82.2056 81.8068 82.3388 81.8639C83.9005 82.5136 85.5461 82.9443 87.2271 83.1435C87.9127 83.2123 88.5939 82.9787 89.0912 82.5033C89.6444 81.9767 90.4881 81.8954 91.1318 82.3085L93.1136 83.5888C93.5271 83.8635 94.0604 83.8847 94.4944 83.643C94.9284 83.402 95.1903 82.9391 95.1719 82.4448C95.0535 80.4767 94.9954 78.705 91.1642 75.968C90.5235 75.5204 90.3101 74.6723 90.6647 73.9772L90.8817 73.5583C91.0958 73.1401 91.1149 72.6493 90.9332 72.2158C90.7522 71.7822 90.3888 71.4496 89.9394 71.3068C88.7336 70.8879 87.4838 70.6037 86.2148 70.4601C85.5631 70.4015 85.0613 69.861 85.054 69.2092V68.0746C85.0518 67.8395 84.9488 67.6161 84.7708 67.4601C84.5935 67.3049 84.3573 67.2324 84.1219 67.2602C82.6154 67.1774 81.1441 67.737 80.0774 68.7997V66.7197C80.0723 66.4142 79.9354 66.1249 79.7008 65.9279C79.4668 65.7302 79.1579 65.6423 78.8548 65.6877C77.8771 65.799 76.9267 66.0803 76.0469 66.5182C75.8593 66.6332 75.6246 66.6406 75.4304 66.5373C75.2362 66.434 75.1111 66.2363 75.1023 66.0173V63.6362C75.0957 63.3073 74.9375 62.999 74.6727 62.8019C74.4079 62.6042 74.0665 62.5397 73.7472 62.6269C72.9116 62.8452 72.0943 63.1264 71.3013 63.4684C71.0482 63.582 70.7554 63.5622 70.52 63.4157C70.2846 63.27 70.1375 63.0165 70.1287 62.7404V62.3889C70.1206 61.9582 69.93 61.551 69.6049 61.2675C69.2797 60.9841 68.8494 60.85 68.4198 60.8991C64.5731 61.2573 55.0496 62.8957 48.5686 70.3993V70.3993Z" fill="#4C8056"/>
<path d="M48.5685 11.1088C48.6053 12.6095 48.9908 14.0817 49.6933 15.4096C50.4974 16.7587 51.976 17.5636 53.5503 17.5087C54.0777 18.518 54.7795 19.4269 55.6233 20.1937C56.1912 20.6266 56.9916 20.5812 57.5065 20.0861C58.056 19.5529 58.8998 19.4591 59.5538 19.859C61.056 20.7562 62.6538 21.4843 64.3171 22.0285C64.8246 22.202 65.3874 22.079 65.7751 21.7091L66.8131 20.7086C67.8452 22.1566 69.1068 23.4266 70.5494 24.4704C71.1165 24.8402 71.8411 24.8754 72.4414 24.5619C73.0424 24.2484 73.425 23.6354 73.4419 22.9601C73.4412 22.8063 73.5147 22.662 73.639 22.5712C73.7634 22.4804 73.9237 22.454 74.0701 22.5009C75.0345 22.7843 76.9626 24.0272 78.9121 24.8241C79.5389 25.0768 80.2502 25.0058 80.8144 24.6344C81.3779 24.2623 81.7215 23.6376 81.7325 22.9645C81.734 22.8209 81.8076 22.6869 81.9282 22.6078C82.0496 22.5294 82.2019 22.5162 82.335 22.5726C83.8975 23.2223 85.5424 23.653 87.2241 23.8529C87.9089 23.9218 88.5909 23.6874 89.0882 23.2128C89.6406 22.6854 90.4851 22.6049 91.1288 23.018L93.1106 24.2975C93.524 24.5744 94.0581 24.5963 94.4936 24.3546C94.9284 24.1137 95.191 23.6493 95.1719 23.1535C95.0534 21.1854 94.9953 19.4144 91.1641 16.6767C90.5234 16.2299 90.31 15.381 90.6646 14.6867L90.8816 14.267C91.0957 13.8488 91.1148 13.358 90.9331 12.9245C90.7522 12.4916 90.3888 12.1591 89.9393 12.0163C88.7328 11.5966 87.483 11.3124 86.2133 11.1696C85.5608 11.1132 85.0569 10.5734 85.048 9.92152V8.78407C85.0451 8.54823 84.9421 8.32485 84.7648 8.16957C84.5868 8.0143 84.3507 7.94106 84.116 7.96962C82.6094 7.88686 81.1389 8.44643 80.0722 9.50844V7.43715C80.0685 7.13173 79.9324 6.84316 79.6992 6.64467C79.4653 6.44618 79.1578 6.35756 78.8547 6.40151C77.877 6.51357 76.9266 6.79408 76.0468 7.23207C75.8599 7.34706 75.6253 7.35439 75.4311 7.25185C75.2368 7.14931 75.1118 6.95155 75.1022 6.73256V4.3456C75.0956 4.01601 74.9374 3.70839 74.6726 3.51064C74.4078 3.31362 74.0664 3.24916 73.7472 3.33632C72.9115 3.55458 72.0942 3.83583 71.3012 4.17787C71.0481 4.29067 70.7553 4.27089 70.5199 4.12514C70.2845 3.97866 70.1374 3.72597 70.1286 3.44985V3.09755C70.122 2.66616 69.9329 2.25746 69.607 1.97255C69.2819 1.68764 68.8508 1.55287 68.4197 1.60195C64.5731 1.96669 55.0495 3.60512 48.5685 11.1088Z" fill="#4C8056"/>
<path d="M48.567 11.1051C48.567 11.1051 79.4858 9.36124 95.0423 23.7607C95.1424 23.5746 95.1873 23.3637 95.1703 23.1527C95.0578 21.1847 94.9938 19.4086 91.153 16.673C90.5218 16.2218 90.3107 15.3825 90.655 14.6889L90.8801 14.2729C91.0956 13.8532 91.1148 13.3603 90.9323 12.9259C90.7492 12.4909 90.3835 12.1584 89.9319 12.017C88.7239 11.5981 87.4741 11.3139 86.2037 11.1689C85.5526 11.1103 85.0531 10.5712 85.0465 9.92081V8.78482C85.0414 8.54972 84.9376 8.32779 84.7603 8.17252C84.583 8.01798 84.3491 7.944 84.1144 7.96891C82.6108 7.88102 81.1417 8.43985 80.0809 9.50479V7.44083C80.0758 7.13468 79.939 6.84537 79.7058 6.64689C79.4718 6.44767 79.1636 6.35831 78.8591 6.40079C77.8799 6.51212 76.928 6.7941 76.0467 7.23282C75.8599 7.34635 75.6259 7.35294 75.4325 7.25187C75.2383 7.15006 75.1117 6.9545 75.0985 6.73697V4.33683C75.0897 4.01017 74.9308 3.70548 74.6681 3.50919C74.4055 3.3129 74.0671 3.24625 73.7486 3.32901C72.9151 3.55094 72.0986 3.83438 71.3063 4.17716C71.0517 4.29142 70.7568 4.27091 70.5206 4.12296C70.2845 3.97501 70.1388 3.71866 70.1329 3.44107V3.08878C70.1197 2.65812 69.927 2.25309 69.6003 1.97037C69.2737 1.68766 68.8434 1.55362 68.4137 1.60123C64.573 1.96891 55.0435 3.60074 48.567 11.1051Z" fill="#71C285"/>
<path d="M48.5696 54.3994C49.4567 54.3994 50.1762 53.6831 50.1762 52.7998C50.1762 43.8987 60.8746 33.5994 67.8536 33.5994C68.7415 33.5994 69.4609 32.8831 69.4609 31.9998C69.4609 31.1157 68.7415 30.3994 67.8536 30.3994C59.2238 30.3994 46.9622 41.9849 46.9622 52.7998C46.9622 53.6831 47.6817 54.3994 48.5696 54.3994V54.3994Z" fill="#527F72"/>
<path d="M48.567 70.401C48.567 70.401 79.4858 68.6571 95.0423 83.0573C95.1424 82.8712 95.1873 82.6603 95.1703 82.4494C95.0578 80.4814 94.9938 78.7052 91.153 75.9696C90.5218 75.5185 90.3107 74.6791 90.655 73.9855L90.8801 73.5534C91.0942 73.1359 91.1118 72.6459 90.9294 72.2138C90.7462 71.7816 90.3813 71.4521 89.9319 71.3136C88.7262 70.8866 87.4748 70.6024 86.2037 70.4655C85.5526 70.4069 85.0531 69.8678 85.0465 69.2174V68.0814C85.0472 67.8449 84.945 67.6193 84.7662 67.4626C84.5875 67.3065 84.3499 67.2348 84.1144 67.2655C82.6108 67.1769 81.1417 67.7365 80.0809 68.8014V66.7375C80.0758 66.4313 79.939 66.142 79.7058 65.9428C79.4718 65.7443 79.1636 65.6549 78.8591 65.6974C77.8799 65.8087 76.928 66.0907 76.0467 66.5294C75.8599 66.6422 75.6259 66.6496 75.4325 66.5478C75.2383 66.4467 75.1117 66.2511 75.0985 66.0336V63.6334C75.0948 63.3046 74.9381 62.9955 74.6733 62.7985C74.4092 62.6007 74.0671 62.537 73.7486 62.6256C72.9151 62.8476 72.0986 63.131 71.3063 63.473C71.0517 63.5844 70.759 63.5624 70.5236 63.4152C70.2889 63.268 70.1425 63.0138 70.1329 62.7377V62.3854C70.1197 61.9547 69.927 61.549 69.6003 61.267C69.2737 60.9843 68.8434 60.8502 68.4137 60.8971C64.573 61.2655 55.0435 62.8974 48.567 70.401V70.401Z" fill="#71C285"/>
<path d="M48.5692 96C49.4563 96 50.1758 95.2837 50.1758 94.3997V1.60034C50.1758 0.716309 49.4563 0 48.5692 0C47.6812 0 46.9618 0.716309 46.9618 1.60034V94.3997C46.9618 95.2837 47.6812 96 48.5692 96V96Z" fill="#4FBA6F"/>
<path d="M48.5684 11.1088C48.5308 12.6095 48.1461 14.0817 47.4436 15.4096C46.6395 16.7587 45.1609 17.5636 43.5866 17.5087C43.0592 18.518 42.3574 19.4269 41.5136 20.1937C40.9457 20.6266 40.1446 20.5812 39.6296 20.0861C39.0801 19.5529 38.2371 19.4591 37.5824 19.859C36.0809 20.7562 34.4831 21.4843 32.8191 22.0285C32.3115 22.202 31.7495 22.079 31.3618 21.7091L30.3238 20.7086C29.2917 22.1566 28.0294 23.4266 26.5875 24.4704C26.0204 24.8402 25.2957 24.8754 24.6947 24.5619C24.0945 24.2484 23.7112 23.6354 23.695 22.9601C23.695 22.8063 23.6222 22.662 23.4979 22.5712C23.3735 22.4804 23.2132 22.454 23.066 22.5009C22.1023 22.7843 20.1735 24.0272 18.2241 24.8241C17.598 25.0768 16.8859 25.0058 16.3224 24.6344C15.7582 24.2623 15.4147 23.6376 15.4044 22.9645C15.4029 22.8209 15.3293 22.6869 15.208 22.6078C15.0873 22.5294 14.9343 22.5162 14.8012 22.5726C13.2394 23.2223 11.5938 23.653 9.91284 23.8529C9.22723 23.9218 8.54603 23.6874 8.04874 23.2128C7.49554 22.6854 6.65176 22.6049 6.00808 23.018L4.02628 24.2975C3.61285 24.5744 3.07804 24.5963 2.64328 24.3546C2.20778 24.1137 1.94589 23.6493 1.96429 23.1535C2.08346 21.1854 2.14157 19.4144 5.97277 16.6767C6.61351 16.2299 6.82685 15.381 6.47227 14.6867L6.25526 14.267C6.04119 13.8488 6.02206 13.358 6.20303 12.9245C6.38473 12.4916 6.74813 12.1591 7.19687 12.0163C8.40332 11.5966 9.65243 11.3124 10.9221 11.1696C11.5754 11.1139 12.0793 10.5741 12.0889 9.92152V8.78407C12.0911 8.54823 12.1941 8.32485 12.3721 8.16957C12.5501 8.0143 12.7862 7.94106 13.0209 7.96962C14.5275 7.88686 15.9973 8.44643 17.064 9.50844V7.43715C17.0684 7.13173 17.2045 6.84316 17.4377 6.64467C17.6709 6.44618 17.9791 6.35756 18.2822 6.40151C19.2598 6.51357 20.2096 6.79408 21.0901 7.23207C21.277 7.34706 21.5116 7.35439 21.7058 7.25185C21.9 7.14931 22.0251 6.95155 22.0347 6.73256V4.3456C22.0406 4.01601 22.1995 3.70839 22.4643 3.51064C22.7291 3.31362 23.0704 3.24916 23.3897 3.33632C24.2247 3.55458 25.0427 3.83583 25.835 4.17787C26.088 4.29067 26.3815 4.27089 26.617 4.12514C26.8524 3.97866 26.9987 3.72597 27.0083 3.44985V3.09755C27.0149 2.66616 27.204 2.25746 27.5291 1.97255C27.855 1.68764 28.2861 1.55287 28.7165 1.60195C32.5638 1.96669 42.0874 3.60512 48.5684 11.1088V11.1088Z" fill="#4C8056"/>
<path d="M48.5684 11.1051C48.5684 11.1051 17.6488 9.36124 2.09304 23.7607C1.99226 23.5746 1.94812 23.3637 1.96431 23.1527C2.07686 21.1847 2.1416 19.4086 5.98236 16.673C6.61353 16.2218 6.82392 15.3825 6.48038 14.6889L6.25528 14.2729C6.03973 13.8532 6.02061 13.3603 6.20305 12.9259C6.38548 12.4909 6.75183 12.1584 7.20351 12.017C8.41069 11.5981 9.66127 11.3139 10.9317 11.1689C11.582 11.1103 12.0823 10.5712 12.0889 9.92081V8.78482C12.094 8.54972 12.1977 8.32779 12.375 8.17252C12.5516 8.01798 12.7863 7.944 13.0209 7.96891C14.5246 7.88102 15.9936 8.43985 17.0544 9.50479V7.44083C17.0596 7.13468 17.1957 6.84537 17.4296 6.64689C17.6635 6.44767 17.9718 6.35831 18.2756 6.40079C19.2547 6.51212 20.2066 6.7941 21.0879 7.23282C21.2755 7.34635 21.5087 7.35294 21.7029 7.25187C21.8971 7.15006 22.0236 6.9545 22.0362 6.73697V4.33683C22.0457 4.01017 22.2046 3.70548 22.4672 3.50919C22.7299 3.3129 23.0683 3.24625 23.386 3.32901C24.2203 3.55094 25.0368 3.83438 25.8291 4.17716C26.0829 4.29142 26.3779 4.27091 26.614 4.12296C26.8502 3.97501 26.9958 3.71866 27.0017 3.44107V3.08878C27.0149 2.65812 27.2084 2.25309 27.535 1.97037C27.8609 1.68766 28.2913 1.55362 28.7216 1.60123C32.5624 1.96891 42.0918 3.60074 48.5684 11.1051V11.1051Z" fill="#71C285"/>
<path d="M48.5684 70.3994C48.5308 71.9001 48.1461 73.3723 47.4436 74.7001C46.6395 76.0493 45.1609 76.8542 43.5866 76.8C43.057 77.8093 42.353 78.7182 41.507 79.4843C40.9391 79.9172 40.1387 79.8718 39.6237 79.3774C39.0742 78.8434 38.2304 78.7504 37.5765 79.1503C36.0765 80.0468 34.4809 80.7741 32.8191 81.3198C32.3115 81.4934 31.7495 81.3696 31.3618 80.9997L30.3253 79.9999C29.2932 81.4472 28.0316 82.718 26.589 83.7617C26.0218 84.1315 25.2972 84.1667 24.6969 83.8525C24.0959 83.539 23.7134 82.926 23.6965 82.2507C23.6972 82.0976 23.6236 81.9526 23.4993 81.8625C23.375 81.7717 23.2146 81.7453 23.0682 81.7914C22.1038 82.0749 20.1757 83.3178 18.2263 84.1147C17.5995 84.3674 16.8874 84.2963 16.3239 83.925C15.7604 83.5537 15.4169 82.9289 15.4058 82.2558C15.4044 82.1115 15.3308 81.9775 15.2101 81.8991C15.0888 81.82 14.9358 81.8068 14.8033 81.864C13.2408 82.5136 11.596 82.9443 9.9143 83.1435C9.22868 83.2123 8.54748 82.9787 8.05019 82.5034C7.49699 81.9768 6.65322 81.8955 6.00953 82.3085L4.02773 83.5888C3.6143 83.8664 3.07949 83.8891 2.64326 83.6474C2.20776 83.4057 1.94514 82.9406 1.96426 82.4448C2.08344 80.4768 2.14155 78.705 5.97275 75.968C6.61349 75.5205 6.82683 74.6723 6.47225 73.9772L6.25524 73.5583C6.04117 73.1401 6.02204 72.6494 6.20301 72.2158C6.38471 71.7822 6.74811 71.4496 7.19685 71.3068C8.4033 70.8879 9.65241 70.6037 10.9221 70.4601C11.5739 70.4016 12.0749 69.861 12.0822 69.2092V68.0746C12.0844 67.8395 12.1882 67.6162 12.3654 67.4601C12.5435 67.3049 12.7796 67.2324 13.0143 67.2602C14.5216 67.1774 15.9921 67.737 17.0595 68.7997V66.7197C17.064 66.4142 17.2015 66.1249 17.4355 65.9279C17.6701 65.7302 17.9784 65.6423 18.2822 65.6877C19.2598 65.799 20.2095 66.0803 21.0901 66.5182C21.277 66.6332 21.5116 66.6406 21.7066 66.5373C21.9008 66.434 22.0258 66.2363 22.0347 66.0173V63.6362C22.0405 63.3073 22.1994 62.999 22.4643 62.8019C22.7291 62.6042 23.0704 62.5397 23.3897 62.6269C24.2246 62.8452 25.0427 63.1264 25.835 63.4684C26.088 63.582 26.3815 63.5622 26.6169 63.4157C26.8523 63.27 26.9987 63.0165 27.0083 62.7404V62.3889C27.0164 61.9582 27.2062 61.551 27.5313 61.2675C27.8572 60.9841 28.2868 60.85 28.7165 60.8991C32.5638 61.2573 42.0874 62.8957 48.5684 70.3994V70.3994Z" fill="#4C8056"/>
<path d="M48.5684 70.401C48.5684 70.401 17.6488 68.6571 2.09301 83.0573C1.99223 82.8713 1.94809 82.6603 1.96427 82.4494C2.07682 80.4814 2.14156 78.7052 5.98232 75.9696C6.6135 75.5185 6.82389 74.6791 6.48035 73.9855L6.25524 73.5534C6.04117 73.1359 6.02278 72.6459 6.20596 72.2138C6.38913 71.7816 6.754 71.4521 7.20348 71.3136C8.40845 70.8866 9.65977 70.6024 10.9317 70.4655C11.582 70.4069 12.0822 69.8678 12.0888 69.2174V68.0814C12.0881 67.8449 12.1904 67.6193 12.3691 67.4626C12.5471 67.3065 12.7848 67.2348 13.0209 67.2655C14.5245 67.1769 15.9936 67.7365 17.0544 68.8014V66.7375C17.0595 66.4313 17.1956 66.142 17.4296 65.9428C17.6635 65.7443 17.9717 65.6549 18.2756 65.6974C19.2547 65.8087 20.2066 66.0907 21.0879 66.5294C21.2755 66.6422 21.5087 66.6496 21.7029 66.5478C21.8971 66.4467 22.0236 66.2511 22.0361 66.0336V63.6334C22.0398 63.3046 22.1972 62.9955 22.4621 62.7985C22.7262 62.6007 23.0675 62.537 23.386 62.6256C24.2202 62.8476 25.0368 63.131 25.8291 63.473C26.0836 63.5844 26.3764 63.5624 26.6118 63.4152C26.8465 63.268 26.9929 63.0138 27.0017 62.7377V62.3854C27.0149 61.9547 27.2084 61.549 27.535 61.267C27.8609 60.9843 28.2913 60.8502 28.7216 60.8971C32.5624 61.2655 42.0918 62.8974 48.5684 70.401V70.401Z" fill="#71C285"/>
<path d="M48.5691 65.6006C49.4563 65.6006 50.1758 64.8843 50.1758 64.0002C50.1758 53.186 37.9142 41.6006 29.2844 41.6006C28.3972 41.6006 27.6778 42.3169 27.6778 43.2002C27.6778 44.0842 28.3972 44.8005 29.2844 44.8005C36.2641 44.8005 46.9618 55.0998 46.9618 64.0002C46.9618 64.8843 47.6812 65.6006 48.5691 65.6006V65.6006Z" fill="#71C285"/>
</svg>
