<svg width="46" height="48" viewBox="0 0 46 48" fill="none" xmlns="http://www.w3.org/2000/svg">
<g clip-path="url(#clip0)">
<path d="M21.9219 15.8492H23.432V46.7582H21.9219V15.8492Z" fill="#C9DA53"/>
<path d="M21.8735 0.840584L22.6743 0L23.4752 0.840584C27.6033 5.17368 27.6033 12.199 23.4752 16.5321L22.6743 17.3727L21.8735 16.5321C17.7453 12.199 17.7453 5.17368 21.8735 0.840584Z" fill="#8FC33E"/>
<path d="M22.6751 37.2966C21.2479 37.3022 19.9029 36.5963 19.0508 35.3945L20.2589 34.4435C21.2597 35.8441 23.1528 36.128 24.4872 35.0775C24.7162 34.8973 24.9196 34.6838 25.0913 34.4435L26.2993 35.3945C25.4472 36.5962 24.1022 37.3021 22.6751 37.2966Z" fill="#C9DA53"/>
<path d="M22.6751 47.5997C21.2479 47.6051 19.903 46.8993 19.0508 45.6976L20.2589 44.7466C21.2597 46.1472 23.1528 46.4311 24.4872 45.3806C24.7162 45.2004 24.9196 44.9869 25.0913 44.7466L26.2993 45.6976C25.4472 46.8993 24.1022 47.6051 22.6751 47.5997Z" fill="#C9DA53"/>
<path d="M22.6751 26.9938C21.2479 26.9992 19.903 26.2934 19.0508 25.0917L20.2589 24.1406C21.2597 25.5413 23.1528 25.8252 24.4872 24.7747C24.7162 24.5945 24.9196 24.381 25.0913 24.1406L26.2993 25.0917C25.4472 26.2934 24.1022 26.9992 22.6751 26.9938Z" fill="#C9DA53"/>
<path d="M32.4881 15.8484H33.9982V17.4335C33.9982 21.8105 30.6177 25.3588 26.4476 25.3588H24.9375V23.7738C24.9375 19.3967 28.318 15.8484 32.4881 15.8484Z" fill="#8FC33E"/>
<path d="M32.4881 26.2013H33.9982V27.7864C33.9982 32.1634 30.6177 35.7117 26.4476 35.7117H24.9375V34.1267C24.9375 29.7496 28.318 26.2013 32.4881 26.2013Z" fill="#8FC33E"/>
<path d="M32.4881 36.5043H33.9982V38.0893C33.9982 42.4664 30.6177 46.0147 26.4476 46.0147H24.9375V44.4296C24.9375 40.0526 28.318 36.5043 32.4881 36.5043Z" fill="#8FC33E"/>
<path d="M20.4162 25.3594H18.9061C14.736 25.3594 11.3555 21.8112 11.3555 17.4341V15.849H12.8656C17.0357 15.849 20.4162 19.3973 20.4162 23.7744V25.3594Z" fill="#8FC33E"/>
<path d="M20.4084 35.7117H18.8982C14.7281 35.7117 11.3477 32.1634 11.3477 27.7864V26.2013H12.8578C17.0279 26.2013 20.4084 29.7496 20.4084 34.1267V35.7117Z" fill="#8FC33E"/>
<path d="M20.4084 46.0147H18.8982C14.7281 46.0147 11.3477 42.4664 11.3477 38.0893V36.5043H12.8578C17.0279 36.5043 20.4084 40.0526 20.4084 44.4296V46.0147Z" fill="#8FC33E"/>
</g>
<defs>
<clipPath id="clip0">
<rect width="45.349" height="47.5998" fill="white"/>
</clipPath>
</defs>
</svg>
