
<svg width="216" height="209" viewBox="0 0 216 209" fill="none" xmlns="http://www.w3.org/2000/svg">
<path d="M109.496 86.8231C81.6028 59.8378 51.0183 45.6766 41.1797 55.1928C40.1001 56.287 39.3058 57.6141 38.8622 59.0648L38.7039 58.9116L29.3079 96.1687L19.9516 133.314L8.86071 177.299L1.83984 205.155L43.4072 189.935L96.2779 170.579L138.457 155.136L138.407 155.087C139.819 154.652 141.111 153.912 142.185 152.925C152.024 143.405 137.388 113.812 109.496 86.8231Z" fill="#DD1C4B"/>
<path d="M109.497 86.8123C81.6049 59.8245 51.0195 45.6628 41.1822 55.1813C31.3449 64.6998 45.9809 94.294 73.8726 121.282C101.764 148.27 132.35 162.431 142.187 152.913C152.024 143.394 137.388 113.8 109.497 86.8123Z" fill="#D1E3EE"/>
<path d="M134.628 156.341C129.592 156.426 124.595 155.467 119.975 153.527L85.5001 166.15L32.6115 185.488L4.2509 195.872L1.83984 205.437L43.4073 190.217L96.2779 170.861L134.988 156.689L134.628 156.341Z" fill="#B21D48"/>
<path d="M178.173 128.833C177.742 128.832 177.315 128.758 176.91 128.614C158.641 121.992 138.894 120.135 119.649 123.231L106.795 125.303C104.827 125.574 103.005 124.251 102.724 122.347C102.453 120.508 103.722 118.787 105.607 118.436L118.465 116.347C138.956 113.053 159.983 115.028 179.436 122.075C181.307 122.725 182.278 124.719 181.606 126.529C181.087 127.927 179.708 128.853 178.173 128.833Z" fill="#FFBF41"/>
<path d="M113.398 107.941C111.411 107.93 109.809 106.362 109.82 104.439C109.828 103.111 110.616 101.904 111.85 101.326L187.421 66.5059C189.216 65.6789 191.363 66.4162 192.218 68.1529C193.073 69.8895 192.311 71.9674 190.516 72.7943L114.945 107.614C114.461 107.833 113.933 107.945 113.398 107.941Z" fill="#FFBF41"/>
<path d="M71.315 100.978C70.8404 100.978 70.3703 100.887 69.9331 100.709C68.0987 99.9691 67.2319 97.9304 67.997 96.1554V96.155L73.2294 84.0064C81.2799 65.393 83.157 44.8198 78.6021 25.1296C78.1352 23.2603 79.3232 21.3791 81.2547 20.9273C83.1867 20.4755 85.1309 21.625 85.5978 23.494C85.6081 23.5353 85.6176 23.5767 85.6266 23.6185C90.5063 44.711 88.4942 66.7493 79.8688 86.6875L74.6329 98.8361C74.0742 100.132 72.7661 100.976 71.315 100.978Z" fill="#FFBF41"/>
<path d="M196.166 142.761C200.141 142.761 203.363 139.643 203.363 135.797C203.363 131.951 200.141 128.833 196.166 128.833C192.191 128.833 188.969 131.951 188.969 135.797C188.969 139.643 192.191 142.761 196.166 142.761Z" fill="#D5557E"/>
<path d="M109.799 45.2656C113.774 45.2656 116.996 42.1477 116.996 38.3016C116.996 34.4555 113.774 31.3376 109.799 31.3376C105.824 31.3376 102.602 34.4555 102.602 38.3016C102.602 42.1477 105.824 45.2656 109.799 45.2656Z" fill="#DD95C1"/>
<path d="M77.412 13.9279C73.4369 13.9279 70.2148 10.8102 70.2148 6.96395C70.2148 3.11768 73.4369 0 77.412 0C81.3871 0 84.6092 3.11768 84.6092 6.96395C84.6092 10.8102 81.3871 13.9279 77.412 13.9279Z" fill="#7FCCCB"/>
<path d="M178.173 27.8558C176.185 27.8558 174.574 26.2968 174.574 24.3739V20.8919C174.574 18.969 176.185 17.4099 178.173 17.4099C180.16 17.4099 181.771 18.969 181.771 20.8919V24.3739C181.771 26.2968 180.161 27.8558 178.173 27.8558Z" fill="#2276BB"/>
<path d="M178.173 10.4459C176.185 10.4459 174.574 8.88688 174.574 6.96395V3.48198C174.574 1.55905 176.185 0 178.173 0C180.16 0 181.771 1.55905 181.771 3.48198V6.96395C181.771 8.88688 180.161 10.4459 178.173 10.4459Z" fill="#2276BB"/>
<path d="M188.967 17.4098H185.368C183.381 17.4098 181.77 15.8507 181.77 13.9278C181.77 12.0049 183.381 10.4458 185.368 10.4458H188.967C190.954 10.4458 192.565 12.0049 192.565 13.9278C192.565 15.8507 190.954 17.4098 188.967 17.4098Z" fill="#2276BB"/>
<path d="M170.975 17.4098H167.376C165.389 17.4098 163.777 15.8507 163.777 13.9278C163.777 12.0049 165.389 10.4458 167.376 10.4458H170.975C172.962 10.4458 174.573 12.0049 174.573 13.9278C174.573 15.8507 172.962 17.4098 170.975 17.4098Z" fill="#2276BB"/>
<path d="M30.411 100.977C30.0079 99.487 29.6481 97.9828 29.3134 96.4507L19.957 133.596L20.6768 142.089C22.2453 160.195 30.2837 177.206 43.4091 190.199L96.2833 170.861C95.9954 170.773 95.6967 170.711 95.4088 170.617C63.3476 158.985 39.1142 133.021 30.411 100.977Z" fill="white"/>
<path d="M96.2779 170.861C95.99 170.774 95.6914 170.711 95.4035 170.617C91.9398 169.348 88.5472 167.904 85.241 166.289L37.6172 183.723C39.4228 185.989 41.3557 188.157 43.4073 190.217L96.2779 170.861Z" fill="#F6F6E7"/>
<path d="M152.983 41.7107V59.1937H134.914V41.7107H152.983Z" fill="#C9DA53"/>
<path d="M88.211 104.459C86.2237 104.459 84.6128 102.899 84.6133 100.977C84.6137 99.9903 85.046 99.0506 85.8035 98.3903L121.789 67.0525C123.292 65.7942 125.565 65.9531 126.865 67.4073C128.13 68.8209 128.015 70.9484 126.604 72.2267L90.6184 103.565C89.9581 104.14 89.1003 104.459 88.211 104.459Z" fill="#FFBF41"/>
<path d="M192.567 90.5314C190.58 90.5314 188.969 88.9723 188.969 87.0494V83.5674C188.969 81.6445 190.58 80.0854 192.567 80.0854C194.555 80.0854 196.166 81.6445 196.166 83.5674V87.0494C196.166 88.9723 194.555 90.5314 192.567 90.5314Z" fill="#FFDB43"/>
<path d="M205.29 85.4302C204.335 85.4328 203.419 85.0655 202.746 84.41L200.202 81.9482C198.821 80.565 198.86 78.3605 200.29 77.0247C201.684 75.7216 203.895 75.7216 205.29 77.0247L207.834 79.4865C209.24 80.8466 209.239 83.0511 207.833 84.4108C207.159 85.0633 206.244 85.4302 205.29 85.4302Z" fill="#FFDB43"/>
<path d="M210.56 73.1214H206.962C204.975 73.1214 203.363 71.5624 203.363 69.6394C203.363 67.7165 204.975 66.1575 206.962 66.1575H210.56C212.548 66.1575 214.159 67.7165 214.159 69.6394C214.159 71.5624 212.548 73.1214 210.56 73.1214Z" fill="#FFDB43"/>
<path d="M202.746 63.2743C200.759 63.2738 199.148 61.7148 199.148 59.7914C199.148 58.8683 199.528 57.983 200.202 57.3305L202.746 54.8688C204.176 53.5326 206.454 53.5709 207.835 54.9541C209.181 56.3033 209.181 58.4426 207.835 59.7923L205.29 62.254C204.616 62.9069 203.701 63.2743 202.746 63.2743Z" fill="#FFDB43"/>
<path d="M192.567 59.1935C190.58 59.1935 188.969 57.6344 188.969 55.7115V52.2295C188.969 50.3066 190.58 48.7476 192.567 48.7476C194.555 48.7476 196.166 50.3066 196.166 52.2295V55.7115C196.166 57.6344 194.555 59.1935 192.567 59.1935Z" fill="#FFDB43"/>
<path d="M182.388 63.2744C181.433 63.2744 180.518 62.9071 179.843 62.2542L177.299 59.7925C175.919 58.4092 175.958 56.2047 177.387 54.8689C178.782 53.5658 180.993 53.5658 182.388 54.8689L184.932 57.3307C186.337 58.6908 186.337 60.8954 184.931 62.2551C184.257 62.9075 183.342 63.2744 182.388 63.2744Z" fill="#FFDB43"/>
<path d="M19.8328 3.48193L25.3927 14.384L37.8258 16.132L28.8293 24.6175L30.9525 36.599L19.8328 30.9408L8.71317 36.599L10.8363 24.6175L1.83984 16.132L14.273 14.384L19.8328 3.48193Z" fill="#FFDB43"/>
<path d="M213.019 188.605C211.307 182.735 207.366 177.71 201.985 174.534L200.503 172.382C192.189 160.353 179.117 152.174 164.369 149.774C162.402 149.502 160.579 150.825 160.298 152.729C160.027 154.568 161.296 156.29 163.182 156.64C173.819 158.387 183.513 163.616 190.642 171.452C184.649 172.496 179.406 175.979 176.248 181.017C172.372 187.734 174.858 196.218 181.799 199.968C188.74 203.718 197.509 201.313 201.384 194.597C202.865 191.832 203.664 188.773 203.72 185.659C207.549 191.04 207.855 198.067 204.508 203.741C203.494 205.395 204.058 207.531 205.767 208.512C207.476 209.493 209.684 208.948 210.698 207.294C210.73 207.241 210.761 207.187 210.791 207.132C214.06 201.492 214.862 194.82 213.019 188.605ZM195.108 191.199C193.188 194.566 188.809 195.789 185.33 193.931C181.849 192.072 180.585 187.836 182.506 184.469C182.517 184.45 182.528 184.431 182.538 184.412C184.662 181.048 188.244 178.792 192.283 178.277C192.909 178.261 193.529 178.4 194.083 178.681C197.12 180.321 197.282 187.431 195.108 191.199Z" fill="#2BB3CE"/>
</svg>
