<svg width="32" height="56" viewBox="0 0 32 56" fill="none" xmlns="http://www.w3.org/2000/svg">
<rect width="32" height="56" fill="#C4C4C4"/>
<path d="M12.0228 20.1481C11.5146 19.2152 11.8603 17.7522 12.912 16.6578C14.1063 15.4153 15.7575 15.1191 16.6006 15.9963C16.6015 15.9974 16.6025 15.9986 16.6038 15.9998C16.4351 16.5106 15.8976 17.5973 14.2871 18.1849C12.8115 18.7234 12.2425 19.5798 12.0228 20.1481ZM16.1042 17.4295C15.719 17.8306 15.1715 18.2243 14.396 18.5075C12.8221 19.0817 12.3824 20.022 12.2597 20.4773C12.2656 20.4835 12.2704 20.4899 12.276 20.4956C13.119 21.3728 14.7704 21.0766 15.9645 19.8341C17.027 18.7284 17.3688 17.2467 16.8376 16.3153C16.7098 16.6255 16.4874 17.0307 16.1042 17.4295ZM12.8473 13.3884C14.5475 13.5434 15.4673 12.7834 15.8232 12.3904C15.8226 12.3888 15.8222 12.3871 15.8217 12.3856C15.4009 11.2251 13.7789 10.7872 12.1989 11.4075C10.8074 11.9539 9.91294 13.1387 10.0067 14.2066C10.4319 13.7831 11.2896 13.2466 12.8473 13.3884ZM13.7228 15.6103C15.1289 15.0584 16.0267 13.8546 15.9115 12.7782C15.6722 13.0061 15.309 13.2802 14.802 13.4793C14.2923 13.6794 13.6375 13.8036 12.8189 13.729C11.1575 13.5774 10.3843 14.2458 10.0921 14.6083C10.0951 14.6164 10.0971 14.6243 10.0998 14.6319C10.5207 15.7927 12.1427 16.2308 13.7228 15.6103ZM18.6435 13.1903C19.6636 11.7661 19.5252 10.5524 19.3907 10.0309C19.3891 10.0307 19.3876 10.0301 19.3862 10.0297C18.216 9.79268 17.0058 10.9989 16.683 12.7236C16.3987 14.2429 16.898 15.657 17.8204 16.135C17.6974 15.536 17.7094 14.495 18.6435 13.1903ZM19.7543 10.1565C19.815 10.4882 19.8483 10.9537 19.7447 11.507C19.6407 12.0636 19.3981 12.7085 18.9072 13.3943C17.9105 14.7857 18.0509 15.8211 18.1938 16.2703C18.202 16.2721 18.2096 16.2742 18.2172 16.276C19.3875 16.513 20.5975 15.3071 20.9203 13.5822C21.2077 12.0473 20.6949 10.6197 19.7543 10.1565Z" fill="#784D25" fill-opacity="0.8"/>
</svg>
