<svg width="51" height="39" viewBox="0 0 51 39" fill="none" xmlns="http://www.w3.org/2000/svg">
<path d="M9.46003 12.6427L9.5847 14.1376L9.46003 12.6427ZM36.9025 25.8791L38.1499 25.0461L38.1499 25.0461L36.9025 25.8791ZM43.3852 33.6772C43.2233 34.4897 42.4335 35.0171 41.621 34.8553L28.3812 32.2177C27.5687 32.0559 27.0413 31.266 27.2031 30.4535C27.365 29.6411 28.1548 29.1137 28.9673 29.2755L40.736 31.62L43.0805 19.8513C43.2424 19.0388 44.0322 18.5114 44.8447 18.6732C45.6572 18.8351 46.1846 19.6249 46.0227 20.4374L43.3852 33.6772ZM3.87532 11.6033L9.33535 11.1479L9.5847 14.1376L4.12468 14.593L3.87532 11.6033ZM38.1499 25.0461L43.1615 32.5512L40.6666 34.2172L35.655 26.7121L38.1499 25.0461ZM9.33535 11.1479C20.753 10.1956 31.7874 15.5178 38.1499 25.0461L35.655 26.7121C29.8984 18.0913 19.915 13.2759 9.5847 14.1376L9.33535 11.1479Z" fill="#E3927B"/>
</svg>
