
<svg width="126" height="184" viewBox="0 0 126 184" fill="none" xmlns="http://www.w3.org/2000/svg">
<path d="M39.7853 10.5656L39.0547 11.8757L39.7853 10.5656ZM55.1743 36.8614L56.6743 36.8661L56.6743 36.8661L55.1743 36.8614ZM56.2033 46.9499C55.6157 47.5338 54.6659 47.5308 54.082 46.9432L44.5661 37.3674C43.9821 36.7797 43.9851 35.83 44.5727 35.2461C45.1603 34.6621 46.1101 34.6651 46.694 35.2527L55.1526 43.7646L63.6645 35.306C64.2521 34.722 65.2019 34.725 65.7858 35.3126C66.3698 35.9003 66.3668 36.85 65.7792 37.4339L56.2033 46.9499ZM35.7305 6.58714L40.5158 9.25555L39.0547 11.8757L34.2695 9.2073L35.7305 6.58714ZM56.6743 36.8661L56.646 45.8906L53.646 45.8812L53.6743 36.8567L56.6743 36.8661ZM40.5158 9.25555C50.5225 14.8356 56.7102 25.4089 56.6743 36.8661L53.6743 36.8567C53.7068 26.4906 48.1084 16.9243 39.0547 11.8757L40.5158 9.25555Z" fill="#E3927B"/>
<rect y="60" width="126" height="124" fill="#C4C4C4"/>
</svg>