<svg width="409" height="138" viewBox="0 0 409 138" fill="none" xmlns="http://www.w3.org/2000/svg">
<rect x="30.9961" width="378" height="114" fill="#C4C4C4"/>
<rect x="40.7891" y="45.1699" width="319.415" height="22.5849" fill="#828282"/>
<ellipse cx="303" cy="56.5" rx="15" ry="17.5" fill="#828282"/>
<rect width="30" height="114" transform="matrix(-1 0 0 1 30.9961 0)" fill="#828282"/>
<rect width="35" height="109" transform="matrix(-1 0 0 1 375 29)" fill="#9E9E9E"/>
<ellipse cx="357.326" cy="57.2075" rx="16.6698" ry="17.2075" fill="#789659"/>
<path d="M325.081 56.2929C324.69 56.6834 324.69 57.3166 325.081 57.7071L331.445 64.0711C331.835 64.4616 332.468 64.4616 332.859 64.0711C333.249 63.6805 333.249 63.0474 332.859 62.6569L327.202 57L332.859 51.3431C333.249 50.9526 333.249 50.3195 332.859 49.9289C332.468 49.5384 331.835 49.5384 331.445 49.9289L325.081 56.2929ZM353.75 56H325.788V58H353.75V56Z" fill="#E3927B"/>
<line x1="281.5" y1="34.3174" x2="281.5" y2="77.9999" stroke="#E3927B"/>
<line y1="-0.5" x2="43" y2="-0.5" transform="matrix(-1 0.00071897 -0.00120895 -0.999999 324 77.6826)" stroke="#E3927B"/>
<line y1="-0.5" x2="43" y2="-0.5" transform="matrix(-1 0.00078448 -0.00110799 -0.999999 324 34)" stroke="#E3927B"/>
<line x1="323.305" y1="34" x2="323.305" y2="77.6825" stroke="#E3927B"/>
</svg>
