<svg width="179" height="200" viewBox="0 0 179 200" fill="none" xmlns="http://www.w3.org/2000/svg">
<g clip-path="url(#clip0)">
<path d="M92.4707 66.5942H86.51V196.464H92.4707V66.5942Z" fill="#C9DA53"/>
<path d="M92.6589 3.53188L89.4979 0L86.3368 3.53188C70.0422 21.7382 70.0422 51.2566 86.3368 69.4629L89.4979 72.9948L92.6589 69.4629C108.954 51.2566 108.954 21.7382 92.6589 3.53188Z" fill="#8FC33E"/>
<path d="M89.5 156.71C95.1332 156.733 100.442 153.768 103.806 148.718L99.0371 144.722C95.0867 150.607 87.6142 151.8 82.3472 147.386C81.4434 146.629 80.6406 145.732 79.9629 144.722L75.1944 148.718C78.5581 153.767 83.8668 156.733 89.5 156.71Z" fill="#C9DA53"/>
<path d="M89.5 200C95.1332 200.023 100.442 197.057 103.806 192.008L99.0371 188.012C95.0867 193.897 87.6142 195.09 82.3472 190.676C81.4434 189.919 80.6406 189.022 79.9629 188.012L75.1944 192.008C78.5581 197.057 83.8668 200.023 89.5 200Z" fill="#C9DA53"/>
<path d="M89.5 113.42C95.1332 113.443 100.442 110.477 103.806 105.428L99.0371 101.432C95.0867 107.318 87.6142 108.51 82.3472 104.096C81.4434 103.339 80.6406 102.442 79.9629 101.432L75.1944 105.428C78.5581 110.477 83.8668 113.443 89.5 113.42Z" fill="#C9DA53"/>
<path d="M50.7542 66.5903H44.7935V73.2503C44.7935 91.6415 58.1369 106.55 74.5969 106.55H80.5576V99.8903C80.5576 81.4991 67.2142 66.5903 50.7542 66.5903Z" fill="#8FC33E"/>
<path d="M50.7542 110.09H44.7935V116.75C44.7935 135.141 58.1369 150.05 74.5969 150.05H80.5576V143.39C80.5576 124.999 67.2142 110.09 50.7542 110.09Z" fill="#8FC33E"/>
<path d="M50.7542 153.38H44.7935V160.04C44.7935 178.431 58.1369 193.34 74.5969 193.34H80.5576V186.68C80.5576 168.289 67.2142 153.38 50.7542 153.38Z" fill="#8FC33E"/>
<path d="M98.4146 106.553H104.375C120.835 106.553 134.179 91.6444 134.179 73.2533V66.5933H128.218C111.758 66.5933 98.4146 81.5021 98.4146 99.8932V106.553Z" fill="#8FC33E"/>
<path d="M98.44 150.05H104.401C120.861 150.05 134.204 135.141 134.204 116.75V110.09H128.243C111.783 110.09 98.44 124.999 98.44 143.39V150.05Z" fill="#8FC33E"/>
<path d="M98.44 193.34H104.401C120.861 193.34 134.204 178.431 134.204 160.04V153.38H128.243C111.783 153.38 98.44 168.289 98.44 186.68V193.34Z" fill="#8FC33E"/>
</g>
<defs>
<clipPath id="clip0">
<rect width="179" height="200" fill="white" transform="matrix(-1 0 0 1 179 0)"/>
</clipPath>
</defs>
</svg>
