<svg width="47" height="46" viewBox="0 0 47 46" fill="none" xmlns="http://www.w3.org/2000/svg">
<path d="M39.2206 15.4064L42.2617 9.39323L37.0181 4.20792L30.9373 7.21523C30.3411 6.92955 29.7317 6.67932 29.1156 6.46629L26.9664 0H19.5508L17.4012 6.46629C16.7851 6.67932 16.1758 6.92955 15.5796 7.21523L9.49878 4.20792L4.2552 9.39323L7.2963 15.4064C7.00741 15.996 6.75437 16.5986 6.53895 17.2079L0 19.3333V26.6664L6.53895 28.7921C6.75437 29.4014 7.00741 30.004 7.2963 30.5936L4.2552 36.6068L9.49878 41.7921L15.5796 38.7848C16.1758 39.0704 16.7851 39.3207 17.4012 39.5337L19.5505 46H26.966L29.1156 39.5337C29.7317 39.3207 30.3411 39.0704 30.9373 38.7848L37.0181 41.7921L42.2617 36.6068L39.2206 30.5936C39.5094 30.004 39.7625 29.4014 39.9779 28.7921L46.5169 26.6667V19.3336L39.9779 17.2079C39.7625 16.5986 39.5094 15.9957 39.2206 15.4064ZM31.4352 32.4336H15.0816V29.7383C15.0816 25.2794 18.7495 21.6523 23.2584 21.6523C20.2521 21.6523 17.8072 19.2346 17.8072 16.2617C17.8072 13.2888 20.2521 10.8711 23.2584 10.8711C26.2647 10.8711 28.7096 13.2888 28.7096 16.2617C28.7096 19.2346 26.2647 21.6523 23.2584 21.6523C27.7674 21.6523 31.4352 25.2794 31.4352 29.7383V32.4336Z" fill="#789659"/>
</svg>
